<svg width="1400" height="800" viewBox="0 0 1400 800" xmlns="http://www.w3.org/2000/svg">
  <defs>
    <filter id="shadow">
      <feDropShadow dx="0" dy="2" stdDeviation="4" flood-opacity="0.1"/>
    </filter>
  </defs>

  <!-- Background -->
  <rect width="1400" height="800" fill="#f5f5f5"/>

  <!-- Header -->
  <rect width="1400" height="60" fill="#ffffff"/>
  <line x1="0" y1="60" x2="1400" y2="60" stroke="#e0e0e0" stroke-width="1"/>

  <text x="30" y="40" font-family="system-ui, -apple-system, sans-serif" font-size="18" font-weight="700" fill="#0066cc">MAGNET NEXUS</text>
  <text x="180" y="40" font-family="system-ui, -apple-system, sans-serif" font-size="14" fill="#999">™</text>

  <!-- Home icon -->
  <rect x="210" y="23" width="24" height="24" rx="2" fill="#f0f0f0"/>
  <path d="M218 33 L226 27 L234 33 M226 27 L226 37 M222 33 L222 37 L230 37 L230 33" stroke="#666" stroke-width="1.5" fill="none" stroke-linecap="round"/>

  <!-- User menu -->
  <circle cx="1340" cy="35" r="14" fill="#e0e0e0"/>
  <text x="1340" y="40" font-family="system-ui, -apple-system, sans-serif" font-size="11" text-anchor="middle" fill="#666">ML</text>
  <text x="1380" y="40" font-family="system-ui, -apple-system, sans-serif" font-size="13" text-anchor="end" fill="#333">Marcus Lees</text>

  <!-- Settings icon -->
  <circle cx="1290" cy="35" r="10" stroke="#666" stroke-width="1.5" fill="none"/>
  <circle cx="1290" cy="35" r="4" stroke="#666" stroke-width="1.5" fill="none"/>

  <!-- Help icon -->
  <circle cx="1250" cy="35" r="10" stroke="#666" stroke-width="1.5" fill="none"/>
  <text x="1250" y="40" font-family="system-ui, -apple-system, sans-serif" font-size="14" font-weight="700" text-anchor="middle" fill="#666">?</text>

  <!-- Navigation tabs -->
  <g transform="translate(30, 75)">
    <text x="0" y="20" font-family="system-ui, -apple-system, sans-serif" font-size="15" font-weight="600" fill="#333">Cases</text>
    <rect x="0" y="25" width="50" height="3" fill="#0066cc"/>
    <text x="100" y="20" font-family="system-ui, -apple-system, sans-serif" font-size="15" fill="#666">Evidence sources</text>
    <text x="250" y="20" font-family="system-ui, -apple-system, sans-serif" font-size="15" fill="#666">Agents</text>
  </g>

  <!-- Main content -->
  <g transform="translate(30, 140)">

    <!-- Top cards row -->
    <g>
      <!-- Cases status card -->
      <g>
        <rect width="380" height="200" rx="8" fill="#ffffff" stroke="#e0e0e0" stroke-width="1" filter="url(#shadow)"/>

        <text x="25" y="35" font-family="system-ui, -apple-system, sans-serif" font-size="18" font-weight="600" fill="#333">Cases</text>

        <!-- Progress circle -->
        <g transform="translate(100, 100)">
          <circle r="55" fill="none" stroke="#e8e8e8" stroke-width="12"/>
          <circle r="55" fill="none" stroke="#4caf50" stroke-width="12" stroke-dasharray="345" stroke-dashoffset="0" transform="rotate(-90)"/>
          <text x="0" y="-5" font-family="system-ui, -apple-system, sans-serif" font-size="28" font-weight="700" text-anchor="middle" fill="#333">100%</text>
          <text x="0" y="15" font-family="system-ui, -apple-system, sans-serif" font-size="13" text-anchor="middle" fill="#999">Complete</text>
        </g>

        <g transform="translate(200, 60)">
          <text x="0" y="0" font-family="system-ui, -apple-system, sans-serif" font-size="13" fill="#4caf50">Successful</text>
          <text x="140" y="0" font-family="system-ui, -apple-system, sans-serif" font-size="13" text-anchor="end" fill="#333">5</text>
          <line x1="0" y1="8" x2="150" y2="8" stroke="#f0f0f0" stroke-width="1"/>

          <text x="0" y="35" font-family="system-ui, -apple-system, sans-serif" font-size="13" fill="#999">In progress</text>
          <text x="140" y="35" font-family="system-ui, -apple-system, sans-serif" font-size="13" text-anchor="end" fill="#333">0</text>
          <line x1="0" y1="43" x2="150" y2="43" stroke="#f0f0f0" stroke-width="1"/>

          <text x="0" y="70" font-family="system-ui, -apple-system, sans-serif" font-size="13" fill="#999">Needs review</text>
          <text x="140" y="70" font-family="system-ui, -apple-system, sans-serif" font-size="13" text-anchor="end" fill="#333">0</text>
        </g>
      </g>

      <!-- Notifications card -->
      <g transform="translate(410, 0)">
        <rect width="420" height="200" rx="8" fill="#ffffff" stroke="#e0e0e0" stroke-width="1" filter="url(#shadow)"/>

        <text x="25" y="35" font-family="system-ui, -apple-system, sans-serif" font-size="18" font-weight="600" fill="#333">Notifications</text>
        <text x="160" y="35" font-family="system-ui, -apple-system, sans-serif" font-size="14" fill="#999">1</text>

        <circle cx="385" cy="27" r="12" fill="#f0f0f0"/>
        <path d="M380 22 L380 28 L385 33 L390 28 L390 22" stroke="#666" stroke-width="1.5" fill="none"/>

        <!-- Notification 1 -->
        <g transform="translate(25, 60)">
          <text x="0" y="0" font-family="system-ui, -apple-system, sans-serif" font-size="14" font-weight="600" fill="#333">Collection complete</text>
          <text x="0" y="20" font-family="system-ui, -apple-system, sans-serif" font-size="13" fill="#666">Investigation of LS on sv-a1</text>
          <text x="0" y="40" font-family="system-ui, -apple-system, sans-serif" font-size="12" font-weight="600" fill="#0066cc">View results</text>
          <text x="340" y="0" font-family="system-ui, -apple-system, sans-serif" font-size="12" text-anchor="end" fill="#999">4 moment ago</text>
        </g>

        <line x1="25" y1="115" x2="395" y2="115" stroke="#f0f0f0" stroke-width="1"/>

        <!-- Notification 2 -->
        <g transform="translate(25, 130)">
          <text x="0" y="0" font-family="system-ui, -apple-system, sans-serif" font-size="14" font-weight="600" fill="#333">Collection complete</text>
          <text x="0" y="20" font-family="system-ui, -apple-system, sans-serif" font-size="13" fill="#666">Phishing email triage</text>
          <text x="0" y="40" font-family="system-ui, -apple-system, sans-serif" font-size="12" font-weight="600" fill="#0066cc">View results</text>
          <text x="340" y="0" font-family="system-ui, -apple-system, sans-serif" font-size="12" text-anchor="end" fill="#999">4 moment ago</text>
        </g>
      </g>

      <!-- Recently viewed card -->
      <g transform="translate(860, 0)">
        <rect width="480" height="200" rx="8" fill="#ffffff" stroke="#e0e0e0" stroke-width="1" filter="url(#shadow)"/>

        <text x="25" y="35" font-family="system-ui, -apple-system, sans-serif" font-size="18" font-weight="600" fill="#333">Recently viewed</text>

        <circle cx="435" cy="27" r="12" fill="#f0f0f0"/>
        <path d="M430 22 L430 28 L435 33 L440 28 L440 22" stroke="#666" stroke-width="1.5" fill="none"/>

        <text x="25" y="80" font-family="system-ui, -apple-system, sans-serif" font-size="14" fill="#999">You haven't viewed any cases, evidence sources, or documents yet.</text>
      </g>
    </g>

    <!-- Cases table section -->
    <g transform="translate(0, 240)">
      <text x="0" y="0" font-family="system-ui, -apple-system, sans-serif" font-size="22" font-weight="600" fill="#333">Cases</text>
      <text x="85" y="0" font-family="system-ui, -apple-system, sans-serif" font-size="18" fill="#999">5</text>

      <!-- Action buttons -->
      <g transform="translate(1125, -15)">
        <rect width="90" height="40" rx="4" fill="#ffffff" stroke="#e0e0e0" stroke-width="1"/>
        <rect x="5" y="8" width="24" height="24" fill="#f0f0f0"/>
        <line x1="11" y1="20" x2="23" y2="20" stroke="#666" stroke-width="2"/>
        <line x1="11" y1="14" x2="23" y2="14" stroke="#666" stroke-width="2"/>
        <line x1="11" y1="26" x2="23" y2="26" stroke="#666" stroke-width="2"/>

        <rect x="105" y="0" width="90" height="40" rx="4" fill="#ffffff" stroke="#e0e0e0" stroke-width="1"/>
        <rect x="110" y="8" width="24" height="24" fill="#f0f0f0"/>
        <rect x="113" y="11" width="6" height="6" fill="#666"/>
        <rect x="121" y="11" width="6" height="6" fill="#666"/>
        <rect x="113" y="19" width="6" height="6" fill="#666"/>
        <rect x="121" y="19" width="6" height="6" fill="#666"/>

        <rect x="210" y="0" width="130" height="40" rx="4" fill="#0066cc"/>
        <text x="255" y="25" font-family="system-ui, -apple-system, sans-serif" font-size="14" font-weight="600" text-anchor="middle" fill="#ffffff">Create case</text>
      </g>

      <!-- Table -->
      <g transform="translate(0, 35)">
        <rect width="1340" height="360" rx="8" fill="#ffffff" stroke="#e0e0e0" stroke-width="1" filter="url(#shadow)"/>

        <!-- Table header -->
        <rect x="1" y="1" width="1338" height="50" rx="7" fill="#f8f8f8"/>

        <rect x="25" y="18" width="18" height="18" rx="3" fill="#ffffff" stroke="#d0d0d0" stroke-width="1"/>

        <text x="70" y="33" font-family="system-ui, -apple-system, sans-serif" font-size="13" font-weight="600" fill="#333">Case</text>
        <text x="550" y="33" font-family="system-ui, -apple-system, sans-serif" font-size="13" font-weight="600" fill="#333">Owner</text>
        <text x="750" y="33" font-family="system-ui, -apple-system, sans-serif" font-size="13" font-weight="600" fill="#333">Created ↓</text>
        <text x="1050" y="33" font-family="system-ui, -apple-system, sans-serif" font-size="13" font-weight="600" fill="#333">Status</text>
        <text x="1250" y="33" font-family="system-ui, -apple-system, sans-serif" font-size="13" font-weight="600" fill="#333">Size</text>

        <!-- Row 1 -->
        <g transform="translate(0, 51)">
          <rect width="1340" height="60" fill="#ffffff"/>
          <line x1="0" y1="60" x2="1340" y2="60" stroke="#f0f0f0" stroke-width="1"/>

          <rect x="25" y="21" width="18" height="18" rx="3" fill="#ffffff" stroke="#d0d0d0" stroke-width="1"/>
          <text x="70" y="36" font-family="system-ui, -apple-system, sans-serif" font-size="14" fill="#333">Investigation of LS on sv-a1</text>
          <text x="550" y="36" font-family="system-ui, -apple-system, sans-serif" font-size="14" fill="#666">John Appleton</text>
          <text x="750" y="36" font-family="system-ui, -apple-system, sans-serif" font-size="14" fill="#666">June 6, 2024 11:00:21 AM</text>

          <rect x="1050" y="18" width="85" height="24" rx="12" fill="#e8f5e9"/>
          <text x="1092" y="34" font-family="system-ui, -apple-system, sans-serif" font-size="12" font-weight="600" text-anchor="middle" fill="#2e7d32">Completed</text>

          <text x="1250" y="36" font-family="system-ui, -apple-system, sans-serif" font-size="14" fill="#666">100 MB</text>
        </g>

        <!-- Row 2 -->
        <g transform="translate(0, 111)">
          <rect width="1340" height="60" fill="#ffffff"/>
          <line x1="0" y1="60" x2="1340" y2="60" stroke="#f0f0f0" stroke-width="1"/>

          <rect x="25" y="21" width="18" height="18" rx="3" fill="#ffffff" stroke="#d0d0d0" stroke-width="1"/>
          <text x="70" y="36" font-family="system-ui, -apple-system, sans-serif" font-size="14" fill="#333">Phishing email triage</text>
          <text x="550" y="36" font-family="system-ui, -apple-system, sans-serif" font-size="14" fill="#666">Adam Malmberg</text>
          <text x="750" y="36" font-family="system-ui, -apple-system, sans-serif" font-size="14" fill="#666">May 21, 2024 7:30:42 AM</text>

          <rect x="1050" y="18" width="85" height="24" rx="12" fill="#e8f5e9"/>
          <text x="1092" y="34" font-family="system-ui, -apple-system, sans-serif" font-size="12" font-weight="600" text-anchor="middle" fill="#2e7d32">Completed</text>

          <text x="1250" y="36" font-family="system-ui, -apple-system, sans-serif" font-size="14" fill="#666">12.2 GB</text>
        </g>

        <!-- Row 3 -->
        <g transform="translate(0, 171)">
          <rect width="1340" height="60" fill="#ffffff"/>
          <line x1="0" y1="60" x2="1340" y2="60" stroke="#f0f0f0" stroke-width="1"/>

          <rect x="25" y="21" width="18" height="18" rx="3" fill="#ffffff" stroke="#d0d0d0" stroke-width="1"/>
          <text x="70" y="36" font-family="system-ui, -apple-system, sans-serif" font-size="14" fill="#333">Audit of endpoints - payroll</text>
          <text x="550" y="36" font-family="system-ui, -apple-system, sans-serif" font-size="14" fill="#666">Trevor Bailey</text>
          <text x="750" y="36" font-family="system-ui, -apple-system, sans-serif" font-size="14" fill="#666">May 3, 2024 5:04:21 PM</text>

          <rect x="1050" y="18" width="85" height="24" rx="12" fill="#e8f5e9"/>
          <text x="1092" y="34" font-family="system-ui, -apple-system, sans-serif" font-size="12" font-weight="600" text-anchor="middle" fill="#2e7d32">Completed</text>

          <text x="1250" y="36" font-family="system-ui, -apple-system, sans-serif" font-size="14" fill="#666">1 GB</text>
        </g>

        <!-- Row 4 -->
        <g transform="translate(0, 231)">
          <rect width="1340" height="60" fill="#ffffff"/>
          <line x1="0" y1="60" x2="1340" y2="60" stroke="#f0f0f0" stroke-width="1"/>

          <rect x="25" y="21" width="18" height="18" rx="3" fill="#ffffff" stroke="#d0d0d0" stroke-width="1"/>
          <text x="70" y="36" font-family="system-ui, -apple-system, sans-serif" font-size="14" fill="#333">Data exfiltration on laptop</text>
          <text x="550" y="36" font-family="system-ui, -apple-system, sans-serif" font-size="14" fill="#666">Christina Morton</text>
          <text x="750" y="36" font-family="system-ui, -apple-system, sans-serif" font-size="14" fill="#666">March 6, 2024 11:00:21 AM</text>

          <rect x="1050" y="18" width="85" height="24" rx="12" fill="#e8f5e9"/>
          <text x="1092" y="34" font-family="system-ui, -apple-system, sans-serif" font-size="12" font-weight="600" text-anchor="middle" fill="#2e7d32">Completed</text>

          <text x="1250" y="36" font-family="system-ui, -apple-system, sans-serif" font-size="14" fill="#666">1.5 GB</text>
        </g>

        <!-- Row 5 -->
        <g transform="translate(0, 291)">
          <rect width="1340" height="60" fill="#ffffff"/>

          <rect x="25" y="21" width="18" height="18" rx="3" fill="#ffffff" stroke="#d0d0d0" stroke-width="1"/>
          <text x="70" y="36" font-family="system-ui, -apple-system, sans-serif" font-size="14" fill="#333">HR Misconduct</text>
          <text x="550" y="36" font-family="system-ui, -apple-system, sans-serif" font-size="14" fill="#666">Drake Wall</text>
          <text x="750" y="36" font-family="system-ui, -apple-system, sans-serif" font-size="14" fill="#666">January 6, 2024 9:03:32 AM</text>

          <rect x="1050" y="18" width="85" height="24" rx="12" fill="#e8f5e9"/>
          <text x="1092" y="34" font-family="system-ui, -apple-system, sans-serif" font-size="12" font-weight="600" text-anchor="middle" fill="#2e7d32">Completed</text>

          <text x="1250" y="36" font-family="system-ui, -apple-system, sans-serif" font-size="14" fill="#666">500 MB</text>
        </g>
      </g>
    </g>
  </g>
</svg>